<svg width="921" height="705" viewBox="0 0 921 705" fill="none" xmlns="http://www.w3.org/2000/svg">
<rect x="0.85" y="0.85" width="919.3" height="572.3" rx="50.15" fill="white" stroke="black" stroke-width="0.3"/>
<path d="M1 462H920V526C920 553.062 898.062 575 871 575H50C22.938 575 1 553.062 1 526V462Z" fill="black"/>
<circle cx="461" cy="519" r="25" fill="#929292"/>
<rect x="361" y="575" width="200" height="115" fill="#292929"/>
<path d="M297 695C297 692.239 299.239 690 302 690H620C622.761 690 625 692.239 625 695V700C625 702.761 622.761 705 620 705H302C299.239 705 297 702.761 297 700V695Z" fill="black"/>
<path d="M1 51C1 23.3858 23.3858 1 51 1H870C897.614 1 920 23.3858 920 51V462H1V51Z" fill="white"/>
</svg>
