<svg width="300" height="300" viewBox="0 0 300 300" fill="none" xmlns="http://www.w3.org/2000/svg">
<rect width="300" height="300" fill="black"/>
<path d="M120.397 113.773V186.5H107.222V113.773H120.397ZM113.827 106.031C111.768 106.031 110.004 105.357 108.536 104.007C107.092 102.634 106.37 100.989 106.37 99.071C106.37 97.1297 107.104 95.4844 108.572 94.1349C110.039 92.7618 111.791 92.0753 113.827 92.0753C115.863 92.0753 117.603 92.7618 119.047 94.1349C120.515 95.4844 121.249 97.1297 121.249 99.071C121.249 100.989 120.515 102.634 119.047 104.007C117.603 105.357 115.863 106.031 113.827 106.031ZM159.308 186.5H134.664V113.773H159.806C167.026 113.773 173.229 115.229 178.414 118.141C183.622 121.029 187.623 125.184 190.416 130.605C193.21 136.027 194.607 142.513 194.607 150.065C194.607 157.641 193.198 164.152 190.381 169.597C187.587 175.042 183.551 179.22 178.271 182.132C173.016 185.044 166.695 186.5 159.308 186.5ZM147.838 175.101H158.669C163.735 175.101 167.961 174.178 171.347 172.331C174.732 170.461 177.277 167.679 178.982 163.986C180.686 160.269 181.539 155.629 181.539 150.065C181.539 144.502 180.686 139.885 178.982 136.216C177.277 132.523 174.756 129.765 171.418 127.942C168.103 126.095 163.984 125.172 159.06 125.172H147.838V175.101Z" fill="white"/>
</svg>
